<?xml version="1.0" standalone="no"?>
<!DOCTYPE svg PUBLIC "-//W3C//DTD SVG 1.1//EN" "http://www.w3.org/Graphics/SVG/1.1/DTD/svg11.dtd">
<svg xmlns="http://www.w3.org/2000/svg" xmlns:inkscape="http://www.inkscape.org/namespaces/inkscape" xmlns:xlink="http://www.w3.org/1999/xlink" viewBox = "0 0 1248 674" version = "1.1">
<!-- svg generated using QGIS www.qgis.org -->
<g id="temp" inkscape:groupmode="layer" inkscape:label="temp">
<g stroke="rgb(0,0,0)" fill="rgb(214,205,104)" stroke-linejoin="round" stroke-width="0.26">
<g id="a1" >
<path d="M 947,379 L 946,380 L 946,381 L 947,381 L 948,379 L 949,379 L 950,379 L 951,380 L 951,381 L 952,381 L 953,381 L 953,382 L 953,383 L 954,383 L 955,384 L 956,384 L 956,385 L 957,386 L 957,387 L 958,387 L 959,386 L 960,386 L 962,385 L 963,385 L 964,386 L 965,386 L 966,386 L 967,386 L 967,387 L 969,389 L 965,391 L 958,394 L 954,397 L 953,397 L 951,398 L 949,399 L 949,400 L 948,400 L 947,400 L 947,401 L 946,401 L 945,402 L 944,402 L 943,402 L 941,404 L 940,404 L 938,405 L 936,406 L 935,407 L 934,407 L 933,407 L 932,407 L 931,407 L 929,407 L 928,407 L 927,406 L 926,406 L 925,405 L 924,405 L 922,405 L 922,404 L 920,404 L 921,403 L 921,402 L 921,400 L 922,400 L 923,398 L 923,397 L 923,396 L 923,395 L 924,395 L 924,394 L 924,393 L 924,392 L 925,392 L 925,391 L 926,390 L 927,390 L 928,390 L 929,390 L 930,390 L 931,390 L 932,390 L 933,390 L 933,389 L 934,387 L 935,385 L 935,383 L 935,382 L 936,381 L 937,381 L 938,381 L 939,382 L 940,382 L 941,382 L 941,381 L 942,381 L 942,380 L 943,380 L 944,380 L 945,379 L 947,379 " />
</g>
<g id="a392" >
<path d="M 615,348 L 614,348 L 613,348 L 613,349 L 613,350 L 613,351 L 612,353 L 612,354 L 611,357 L 610,358 L 609,359 L 608,359 L 607,359 L 606,360 L 605,361 L 604,362 L 603,363 L 602,364 L 601,365 L 600,366 L 600,365 L 599,365 L 599,364 L 599,361 L 599,360 L 599,359 L 599,358 L 599,357 L 600,357 L 600,356 L 600,355 L 601,355 L 601,354 L 602,353 L 601,352 L 601,351 L 601,350 L 601,351 L 600,350 L 599,350 L 598,349 L 599,348 L 600,348 L 601,348 L 602,348 L 603,348 L 603,347 L 604,347 L 604,346 L 605,346 L 606,345 L 607,344 L 608,344 L 608,343 L 609,343 L 610,342 L 611,342 L 612,342 L 613,341 L 615,344 L 616,345 L 617,347 L 615,348 " />
</g>
<g id="a393" >
<path d="M 714,333 L 714,334 L 713,334 L 712,334 L 712,333 L 711,333 L 710,333 L 709,333 L 708,333 L 707,333 L 706,333 L 705,333 L 704,333 L 704,332 L 704,331 L 703,330 L 703,329 L 703,328 L 703,327 L 703,326 L 703,325 L 703,324 L 703,323 L 703,322 L 703,321 L 704,321 L 705,320 L 707,319 L 708,319 L 709,318 L 710,318 L 711,318 L 712,318 L 714,319 L 714,320 L 714,322 L 714,323 L 714,324 L 714,326 L 714,327 L 714,328 L 714,329 L 714,330 L 714,332 L 714,333 " />
</g>
<g id="a394" >
<path d="M 705,338 L 706,338 L 707,338 L 707,339 L 707,340 L 708,342 L 709,343 L 710,343 L 710,344 L 711,344 L 712,344 L 713,344 L 713,345 L 713,344 L 714,345 L 713,345 L 713,346 L 713,347 L 713,348 L 712,348 L 712,349 L 712,350 L 713,351 L 711,351 L 710,351 L 709,351 L 708,351 L 708,352 L 707,352 L 706,352 L 706,351 L 705,350 L 705,349 L 705,348 L 705,347 L 705,346 L 704,346 L 703,346 L 702,347 L 702,348 L 701,348 L 700,348 L 700,347 L 699,347 L 698,346 L 697,346 L 696,345 L 696,344 L 697,343 L 698,341 L 699,339 L 699,338 L 700,336 L 701,337 L 702,337 L 703,337 L 703,338 L 704,338 L 705,338 " />
</g>
<g id="a395" >
<path d="M 719,338 L 719,339 L 718,339 L 718,340 L 717,340 L 717,341 L 716,341 L 716,342 L 715,342 L 715,343 L 714,343 L 714,344 L 713,344 L 713,345 L 713,344 L 712,344 L 711,344 L 710,344 L 710,343 L 709,343 L 708,342 L 707,340 L 707,339 L 707,338 L 706,338 L 705,338 L 704,338 L 703,338 L 703,337 L 702,337 L 701,337 L 700,336 L 700,335 L 700,334 L 702,333 L 703,333 L 704,333 L 705,333 L 706,333 L 707,333 L 708,333 L 709,333 L 710,333 L 711,333 L 712,333 L 712,334 L 713,334 L 714,334 L 715,334 L 716,334 L 718,334 L 720,334 L 720,335 L 720,336 L 720,337 L 720,338 L 719,338 " />
</g>
<g id="a396" >
<path d="M 700,348 L 701,348 L 702,348 L 702,347 L 703,346 L 704,346 L 705,346 L 705,347 L 705,348 L 705,349 L 705,350 L 706,351 L 706,352 L 705,353 L 704,353 L 704,354 L 703,354 L 703,355 L 702,355 L 702,356 L 702,357 L 702,358 L 702,359 L 702,360 L 702,361 L 701,361 L 701,362 L 700,362 L 699,361 L 699,360 L 698,360 L 697,360 L 697,359 L 696,359 L 696,360 L 696,361 L 695,361 L 694,361 L 694,360 L 693,360 L 694,360 L 694,359 L 693,359 L 692,358 L 693,358 L 693,357 L 692,357 L 691,357 L 691,356 L 691,355 L 692,354 L 692,353 L 692,352 L 693,352 L 693,351 L 693,350 L 694,350 L 694,349 L 694,348 L 695,348 L 695,347 L 695,346 L 696,345 L 697,346 L 698,346 L 699,347 L 700,347 L 700,348 " />
</g>
<g id="a397" >
<path d="M 694,361 L 695,361 L 696,361 L 696,360 L 696,359 L 697,359 L 697,360 L 698,360 L 699,360 L 699,361 L 700,362 L 699,364 L 698,365 L 698,366 L 696,367 L 696,368 L 695,369 L 695,370 L 694,370 L 693,371 L 693,372 L 692,372 L 692,373 L 691,373 L 691,374 L 690,374 L 689,374 L 688,374 L 688,375 L 687,376 L 687,377 L 687,378 L 687,379 L 687,380 L 689,382 L 690,382 L 689,382 L 688,382 L 687,382 L 687,383 L 686,383 L 686,384 L 684,384 L 683,383 L 679,378 L 680,377 L 679,376 L 680,375 L 681,375 L 682,375 L 683,375 L 683,374 L 684,373 L 684,372 L 684,371 L 684,370 L 684,369 L 684,368 L 684,367 L 685,367 L 685,366 L 685,365 L 686,364 L 687,363 L 688,362 L 688,361 L 689,361 L 689,360 L 689,359 L 690,358 L 690,357 L 691,357 L 692,357 L 693,357 L 693,358 L 692,358 L 693,359 L 694,359 L 694,360 L 693,360 L 694,360 L 694,361 " />
</g>
<g id="a398" >
<path d="M 688,341 L 689,341 L 690,342 L 690,343 L 691,343 L 691,344 L 692,344 L 693,344 L 694,345 L 696,345 L 695,346 L 695,347 L 695,348 L 694,348 L 694,349 L 694,350 L 693,350 L 693,351 L 693,352 L 692,352 L 692,353 L 692,354 L 691,355 L 691,356 L 691,357 L 690,357 L 690,358 L 689,359 L 689,360 L 689,361 L 688,361 L 688,362 L 687,363 L 686,364 L 685,365 L 685,366 L 685,367 L 684,367 L 684,368 L 684,369 L 684,370 L 684,371 L 684,372 L 684,373 L 683,374 L 683,375 L 682,375 L 681,375 L 680,375 L 681,374 L 680,373 L 679,373 L 678,372 L 678,371 L 678,370 L 678,369 L 678,368 L 678,367 L 677,366 L 677,365 L 677,364 L 678,364 L 678,362 L 678,361 L 678,360 L 679,359 L 680,359 L 681,358 L 681,357 L 682,357 L 682,356 L 683,356 L 683,355 L 684,355 L 685,354 L 685,353 L 686,353 L 686,352 L 685,352 L 685,351 L 685,350 L 686,350 L 686,348 L 687,348 L 687,347 L 688,346 L 688,345 L 687,344 L 688,343 L 687,342 L 687,341 L 688,341 " />
</g>
<g id="a399" >
<path d="M 703,323 L 703,324 L 703,325 L 703,326 L 703,327 L 703,328 L 703,329 L 703,330 L 704,331 L 704,332 L 704,333 L 703,333 L 702,333 L 700,334 L 700,335 L 700,336 L 699,338 L 699,339 L 698,341 L 697,343 L 696,344 L 696,345 L 694,345 L 693,344 L 692,344 L 691,344 L 691,343 L 690,343 L 690,342 L 689,341 L 688,341 L 687,341 L 688,340 L 688,339 L 689,339 L 689,338 L 689,337 L 689,336 L 689,335 L 690,335 L 690,334 L 689,333 L 690,333 L 691,332 L 693,332 L 693,330 L 692,328 L 690,327 L 689,326 L 688,326 L 688,324 L 688,323 L 689,323 L 691,323 L 692,323 L 693,323 L 696,323 L 698,323 L 699,323 L 700,323 L 701,323 L 702,322 L 703,322 L 703,323 " />
</g>
<g id="a400" >
<path d="M 679,324 L 680,324 L 681,324 L 682,324 L 681,324 L 680,324 L 680,325 L 679,325 L 679,326 L 679,327 L 679,328 L 678,329 L 678,330 L 678,331 L 677,332 L 676,334 L 675,333 L 674,333 L 673,333 L 673,332 L 672,332 L 671,332 L 670,332 L 670,333 L 669,333 L 668,333 L 667,332 L 666,332 L 666,333 L 665,333 L 664,333 L 663,333 L 662,333 L 661,333 L 661,334 L 662,334 L 661,334 L 661,335 L 660,335 L 660,336 L 660,337 L 660,338 L 660,339 L 659,339 L 658,339 L 657,339 L 656,339 L 656,338 L 656,339 L 655,339 L 654,338 L 654,339 L 654,338 L 653,339 L 652,339 L 651,339 L 650,339 L 649,339 L 649,337 L 649,336 L 649,335 L 649,334 L 650,334 L 650,333 L 651,333 L 651,332 L 651,331 L 651,330 L 652,330 L 653,330 L 653,329 L 653,328 L 653,327 L 654,327 L 655,327 L 656,326 L 657,326 L 658,326 L 659,326 L 660,326 L 661,326 L 662,326 L 663,326 L 664,326 L 665,326 L 665,325 L 666,325 L 667,325 L 668,325 L 669,325 L 670,324 L 671,324 L 672,324 L 673,324 L 674,324 L 675,324 L 675,323 L 676,323 L 677,323 L 679,324 " />
</g>
<g id="a401" >
<path d="M 688,324 L 688,326 L 689,326 L 690,327 L 692,328 L 693,330 L 693,332 L 691,332 L 690,333 L 689,333 L 690,334 L 690,335 L 689,335 L 689,336 L 689,337 L 689,338 L 689,339 L 688,339 L 687,339 L 686,339 L 685,339 L 685,340 L 684,340 L 684,339 L 684,338 L 683,338 L 682,338 L 682,337 L 682,338 L 682,339 L 681,339 L 682,339 L 682,340 L 682,341 L 681,341 L 681,340 L 680,340 L 679,340 L 678,340 L 677,340 L 676,340 L 675,340 L 675,339 L 675,338 L 674,338 L 674,339 L 673,339 L 672,339 L 672,340 L 671,340 L 670,340 L 669,340 L 668,341 L 667,341 L 666,341 L 665,341 L 665,342 L 664,342 L 663,342 L 662,342 L 661,343 L 660,343 L 660,342 L 659,342 L 658,342 L 658,341 L 658,340 L 658,339 L 659,339 L 660,339 L 660,338 L 660,337 L 660,336 L 660,335 L 661,335 L 661,334 L 662,334 L 661,334 L 661,333 L 662,333 L 663,333 L 664,333 L 665,333 L 666,333 L 666,332 L 667,332 L 668,333 L 669,333 L 670,333 L 670,332 L 671,332 L 672,332 L 673,332 L 673,333 L 674,333 L 675,333 L 676,334 L 677,332 L 678,331 L 678,330 L 678,329 L 679,328 L 679,327 L 679,326 L 679,325 L 680,325 L 680,324 L 681,324 L 682,324 L 685,323 L 687,323 L 688,323 L 688,324 " />
</g>
<g id="a402" >
<path d="M 682,338 L 683,338 L 684,338 L 684,339 L 684,340 L 685,340 L 685,339 L 686,339 L 687,339 L 688,339 L 688,340 L 687,341 L 687,342 L 688,343 L 687,344 L 688,345 L 688,346 L 687,347 L 687,348 L 686,348 L 686,350 L 685,350 L 685,351 L 685,352 L 686,352 L 686,353 L 685,353 L 685,354 L 684,355 L 683,355 L 683,356 L 682,356 L 682,357 L 681,357 L 681,358 L 680,359 L 679,359 L 678,360 L 678,361 L 678,362 L 678,364 L 677,364 L 677,365 L 677,366 L 678,367 L 678,368 L 678,369 L 677,369 L 676,369 L 675,370 L 674,370 L 671,371 L 670,370 L 669,370 L 668,370 L 667,370 L 666,371 L 665,372 L 664,373 L 664,374 L 664,375 L 663,376 L 662,376 L 661,376 L 659,373 L 658,372 L 657,372 L 657,371 L 657,370 L 656,369 L 656,368 L 659,365 L 660,364 L 661,364 L 662,365 L 663,365 L 664,365 L 664,364 L 665,366 L 666,364 L 667,362 L 667,360 L 667,359 L 669,359 L 670,358 L 671,357 L 671,356 L 672,357 L 673,357 L 673,356 L 674,356 L 675,356 L 676,356 L 675,355 L 676,355 L 676,354 L 677,354 L 677,353 L 676,353 L 676,352 L 676,351 L 677,351 L 677,350 L 677,349 L 676,349 L 675,350 L 674,350 L 673,350 L 672,350 L 671,349 L 670,349 L 670,348 L 670,347 L 671,347 L 671,346 L 671,345 L 670,345 L 671,345 L 672,345 L 672,344 L 672,343 L 672,342 L 672,341 L 672,340 L 672,339 L 673,339 L 674,339 L 674,338 L 675,338 L 675,339 L 675,340 L 676,340 L 677,340 L 678,340 L 679,340 L 680,340 L 681,340 L 681,341 L 682,341 L 682,340 L 682,339 L 681,339 L 682,339 L 682,338 L 682,337 L 682,338 " />
</g>
<g id="a403" >
<path d="M 654,338 L 654,339 L 654,338 L 655,339 L 656,339 L 656,338 L 656,339 L 657,339 L 658,339 L 658,340 L 658,341 L 658,342 L 659,342 L 660,342 L 660,343 L 661,343 L 662,342 L 663,342 L 664,342 L 665,342 L 665,341 L 666,341 L 667,341 L 668,341 L 669,340 L 670,340 L 671,340 L 672,340 L 672,339 L 672,340 L 672,341 L 672,342 L 672,343 L 672,344 L 672,345 L 671,345 L 670,345 L 671,345 L 671,346 L 671,347 L 670,347 L 670,348 L 670,349 L 671,349 L 672,350 L 673,350 L 674,350 L 675,350 L 676,349 L 677,349 L 677,350 L 677,351 L 676,351 L 676,352 L 676,353 L 677,353 L 677,354 L 676,354 L 676,355 L 675,355 L 676,356 L 675,356 L 674,356 L 673,356 L 673,357 L 672,357 L 671,356 L 671,357 L 670,358 L 669,359 L 667,359 L 667,360 L 667,362 L 666,364 L 665,366 L 664,364 L 664,365 L 663,365 L 662,365 L 661,364 L 660,364 L 659,365 L 656,368 L 656,369 L 654,368 L 654,367 L 652,366 L 650,366 L 649,365 L 647,366 L 647,365 L 646,365 L 646,364 L 645,363 L 644,362 L 643,361 L 643,360 L 642,357 L 642,356 L 642,355 L 642,354 L 643,354 L 644,354 L 644,353 L 645,352 L 646,352 L 646,351 L 646,350 L 647,350 L 647,349 L 647,348 L 648,347 L 648,346 L 649,346 L 649,345 L 648,344 L 649,343 L 650,343 L 651,343 L 652,343 L 652,342 L 652,341 L 652,340 L 652,339 L 653,339 L 654,338 " />
</g>
<g id="a404" >
<path d="M 625,324 L 626,324 L 626,325 L 627,325 L 628,324 L 629,324 L 630,325 L 631,325 L 632,325 L 633,325 L 635,325 L 636,325 L 638,325 L 640,326 L 641,326 L 642,326 L 643,326 L 644,326 L 644,327 L 645,327 L 646,327 L 647,327 L 648,327 L 649,327 L 650,327 L 651,327 L 652,327 L 653,327 L 653,328 L 653,329 L 653,330 L 652,330 L 651,330 L 651,331 L 651,332 L 651,333 L 650,333 L 650,334 L 649,334 L 649,335 L 649,336 L 649,337 L 649,339 L 650,339 L 651,339 L 652,339 L 652,340 L 652,341 L 652,342 L 652,343 L 651,343 L 650,343 L 649,343 L 648,344 L 649,345 L 649,346 L 648,346 L 648,347 L 647,348 L 647,349 L 647,350 L 646,350 L 646,351 L 646,352 L 645,352 L 644,353 L 644,354 L 643,354 L 642,354 L 642,355 L 642,356 L 642,357 L 643,360 L 640,360 L 639,360 L 639,358 L 639,356 L 639,355 L 639,354 L 639,353 L 639,352 L 639,351 L 638,350 L 638,349 L 638,348 L 637,346 L 637,345 L 636,344 L 636,343 L 635,342 L 635,341 L 636,341 L 636,340 L 636,339 L 636,338 L 637,338 L 637,337 L 637,336 L 637,335 L 637,334 L 638,333 L 638,332 L 637,332 L 636,332 L 632,332 L 632,333 L 632,334 L 631,334 L 630,333 L 629,333 L 628,332 L 627,331 L 626,331 L 626,330 L 626,329 L 625,328 L 624,327 L 625,326 L 624,326 L 624,324 L 625,324 " />
</g>
<g id="a405" >
<path d="M 638,348 L 638,349 L 638,350 L 639,351 L 639,352 L 639,353 L 639,354 L 639,355 L 639,356 L 639,358 L 639,360 L 640,360 L 643,360 L 643,361 L 642,362 L 641,362 L 640,362 L 639,362 L 639,361 L 638,361 L 637,361 L 636,360 L 635,360 L 634,360 L 634,361 L 633,362 L 632,361 L 631,361 L 631,360 L 630,360 L 630,359 L 629,359 L 628,358 L 627,358 L 626,358 L 626,359 L 626,361 L 626,362 L 627,363 L 626,362 L 625,362 L 624,361 L 623,361 L 622,361 L 621,361 L 620,360 L 619,360 L 619,359 L 618,359 L 618,360 L 612,360 L 612,359 L 612,357 L 611,357 L 612,354 L 612,353 L 613,351 L 613,350 L 613,349 L 613,348 L 614,348 L 615,348 L 617,347 L 618,347 L 619,347 L 620,347 L 622,346 L 623,346 L 623,345 L 624,345 L 625,345 L 626,345 L 626,344 L 627,344 L 628,344 L 630,343 L 631,343 L 632,343 L 633,343 L 634,343 L 635,342 L 636,343 L 636,344 L 637,345 L 637,346 L 638,348 " />
</g>
<g id="a406" >
<path d="M 622,324 L 623,325 L 624,324 L 624,326 L 625,326 L 624,327 L 625,328 L 626,329 L 626,330 L 626,331 L 627,331 L 628,332 L 629,333 L 630,333 L 631,334 L 632,334 L 632,333 L 632,332 L 636,332 L 637,332 L 638,332 L 638,333 L 637,334 L 637,335 L 637,336 L 637,337 L 637,338 L 636,338 L 636,339 L 636,340 L 636,341 L 635,341 L 635,342 L 634,343 L 633,343 L 632,343 L 631,343 L 630,343 L 628,344 L 627,344 L 626,344 L 626,345 L 625,345 L 624,345 L 623,345 L 623,346 L 622,346 L 620,347 L 619,347 L 618,347 L 617,347 L 616,345 L 615,344 L 613,341 L 613,340 L 612,339 L 612,338 L 611,338 L 611,337 L 610,336 L 610,335 L 609,334 L 608,332 L 609,331 L 610,329 L 611,328 L 612,328 L 612,327 L 613,327 L 613,326 L 613,327 L 615,326 L 616,326 L 616,325 L 617,326 L 617,327 L 618,327 L 618,326 L 619,326 L 619,325 L 619,324 L 620,325 L 620,324 L 621,324 L 622,324 " />
</g>
</g>
</g>
<!-- QGIS extent for clipping, eg in Inkscape -->
<g id="qgisviewbox" inkscape:groupmode="layer" inkscape:label="qgisviewbox" stroke="rgb(255,0,0)" stroke-width="1" fill="none" >
<path d="M 0,670 L 1244,670 L 1244,0 L 0,0 L 0,670 " />
</g></svg>